<svg width="60" height="60" viewBox="0 0 60 60" fill="none" xmlns="http://www.w3.org/2000/svg">
<path d="M10 17.5H17.5C18.163 17.5 18.7989 17.2366 19.2678 16.7678C19.7366 16.2989 20 15.663 20 15V12.5C20 11.1739 20.5268 9.90215 21.4645 8.96447C22.4021 8.02678 23.6739 7.5 25 7.5C26.3261 7.5 27.5979 8.02678 28.5355 8.96447C29.4732 9.90215 30 11.1739 30 12.5V15C30 15.663 30.2634 16.2989 30.7322 16.7678C31.2011 17.2366 31.837 17.5 32.5 17.5H40C40.663 17.5 41.2989 17.7634 41.7678 18.2322C42.2366 18.7011 42.5 19.337 42.5 20V27.5C42.5 28.163 42.7634 28.7989 43.2322 29.2678C43.7011 29.7366 44.337 30 45 30H47.5C48.8261 30 50.0979 30.5268 51.0355 31.4645C51.9732 32.4021 52.5 33.6739 52.5 35C52.5 36.3261 51.9732 37.5979 51.0355 38.5355C50.0979 39.4732 48.8261 40 47.5 40H45C44.337 40 43.7011 40.2634 43.2322 40.7322C42.7634 41.2011 42.5 41.837 42.5 42.5V50C42.5 50.663 42.2366 51.2989 41.7678 51.7678C41.2989 52.2366 40.663 52.5 40 52.5H32.5C31.837 52.5 31.2011 52.2366 30.7322 51.7678C30.2634 51.2989 30 50.663 30 50V47.5C30 46.1739 29.4732 44.9021 28.5355 43.9645C27.5979 43.0268 26.3261 42.5 25 42.5C23.6739 42.5 22.4021 43.0268 21.4645 43.9645C20.5268 44.9021 20 46.1739 20 47.5V50C20 50.663 19.7366 51.2989 19.2678 51.7678C18.7989 52.2366 18.163 52.5 17.5 52.5H10C9.33696 52.5 8.70107 52.2366 8.23223 51.7678C7.76339 51.2989 7.5 50.663 7.5 50V42.5C7.5 41.837 7.76339 41.2011 8.23223 40.7322C8.70107 40.2634 9.33696 40 10 40H12.5C13.8261 40 15.0979 39.4732 16.0355 38.5355C16.9732 37.5979 17.5 36.3261 17.5 35C17.5 33.6739 16.9732 32.4021 16.0355 31.4645C15.0979 30.5268 13.8261 30 12.5 30H10C9.33696 30 8.70107 29.7366 8.23223 29.2678C7.76339 28.7989 7.5 28.163 7.5 27.5V20C7.5 19.337 7.76339 18.7011 8.23223 18.2322C8.70107 17.7634 9.33696 17.5 10 17.5" stroke="#828282" stroke-width="2" stroke-linecap="round" stroke-linejoin="round"/>
</svg>
