<svg width="60" height="60" viewBox="0 0 60 60" fill="none" xmlns="http://www.w3.org/2000/svg">
<path d="M20 52.5H40" stroke="#828282" stroke-width="2" stroke-linecap="round" stroke-linejoin="round"/>
<path d="M30 42.5V52.5" stroke="#828282" stroke-width="2" stroke-linecap="round" stroke-linejoin="round"/>
<path d="M17.5 10H42.5" stroke="#828282" stroke-width="2" stroke-linecap="round" stroke-linejoin="round"/>
<path d="M42.5 10V30C42.5 33.3152 41.183 36.4946 38.8388 38.8388C36.4946 41.183 33.3152 42.5 30 42.5C26.6848 42.5 23.5054 41.183 21.1612 38.8388C18.817 36.4946 17.5 33.3152 17.5 30V10" stroke="#828282" stroke-width="2" stroke-linecap="round" stroke-linejoin="round"/>
<path d="M12.5 27.5C15.2614 27.5 17.5 25.2614 17.5 22.5C17.5 19.7386 15.2614 17.5 12.5 17.5C9.73858 17.5 7.5 19.7386 7.5 22.5C7.5 25.2614 9.73858 27.5 12.5 27.5Z" stroke="#828282" stroke-width="2" stroke-linecap="round" stroke-linejoin="round"/>
<path d="M47.5 27.5C50.2614 27.5 52.5 25.2614 52.5 22.5C52.5 19.7386 50.2614 17.5 47.5 17.5C44.7386 17.5 42.5 19.7386 42.5 22.5C42.5 25.2614 44.7386 27.5 47.5 27.5Z" stroke="#828282" stroke-width="2" stroke-linecap="round" stroke-linejoin="round"/>
</svg>
