<svg width="60" height="60" viewBox="0 0 60 60" fill="none" xmlns="http://www.w3.org/2000/svg">
<path d="M32.121 6.87897C31.5584 6.31656 30.7955 6.00061 30 6.00061C29.2045 6.00061 28.4416 6.31656 27.879 6.87897L6.879 27.879C6.33253 28.4448 6.03014 29.2026 6.03698 29.9892C6.04381 30.7758 6.35932 31.5282 6.91555 32.0844C7.47177 32.6406 8.22421 32.9562 9.0108 32.963C9.79739 32.9698 10.5552 32.6674 11.121 32.121L12 31.242V51C12 51.7956 12.3161 52.5587 12.8787 53.1213C13.4413 53.6839 14.2044 54 15 54H21C21.7957 54 22.5587 53.6839 23.1213 53.1213C23.6839 52.5587 24 51.7956 24 51V45C24 44.2043 24.3161 43.4413 24.8787 42.8786C25.4413 42.316 26.2044 42 27 42H33C33.7957 42 34.5587 42.316 35.1213 42.8786C35.6839 43.4413 36 44.2043 36 45V51C36 51.7956 36.3161 52.5587 36.8787 53.1213C37.4413 53.6839 38.2044 54 39 54H45C45.7957 54 46.5587 53.6839 47.1213 53.1213C47.6839 52.5587 48 51.7956 48 51V31.242L48.879 32.121C49.4448 32.6674 50.2026 32.9698 50.9892 32.963C51.7758 32.9562 52.5282 32.6406 53.0845 32.0844C53.6407 31.5282 53.9562 30.7758 53.963 29.9892C53.9699 29.2026 53.6675 28.4448 53.121 27.879L32.121 6.87897V6.87897Z" fill="#495C83"/>
</svg>
